<?xml version="1.0" encoding="UTF-8" standalone="no"?>
<!-- Created with Inkscape (http://www.inkscape.org/) -->
<svg
   xmlns:svg="http://www.w3.org/2000/svg"
   xmlns="http://www.w3.org/2000/svg"
   xmlns:xlink="http://www.w3.org/1999/xlink"
   version="1.0"
   width="3753.3611"
   height="674.41699"
   viewBox="0 0 3753.361 674.417"
   id="svg2"
   xml:space="preserve"><defs
   id="defs218" />
	
		<g
   transform="translate(41.00094,16.36183)"
   id="レイヤー_1">
			<polygon
   points="266.001,429.502 258.003,425 258.003,285.498 266.001,281.001 266.001,429.502 "
   id="polygon7" />
			<rect
   width="8.0030003"
   height="114.004"
   x="232.5"
   y="297.99799"
   id="rect9" /> 
			<polygon
   points="137.5,503.496 137.5,494.502 258.003,425 266.001,429.502 137.5,503.496 "
   id="polygon11" />
			<polygon
   points="8.999,429.502 17.002,425 137.5,494.502 137.5,503.496 8.999,429.502 "
   id="polygon13" />
			
				<rect
   width="8.066"
   height="114.237"
   x="83.968002"
   y="383.38"
   transform="matrix(-0.4964,0.8681,-0.8681,-0.4964,514.0776,582.7685)"
   id="rect15" /> 
			<polygon
   points="8.999,281.001 17.002,285.498 17.002,425 8.999,429.502 8.999,281.001 "
   id="polygon17" />
			<polygon
   points="133.501,208.999 137.5,211.001 137.5,215.498 17.002,285.498 8.999,281.001 133.501,208.999 "
   id="polygon19" />
			
				<rect
   width="8.059"
   height="114.237"
   x="83.973"
   y="212.381"
   transform="matrix(-0.4962,-0.8682,0.8682,-0.4962,-102.3107,479.631)"
   id="rect21" /> 
			<polygon
   points="266.001,281.001 258.003,285.498 137.5,215.498 137.5,211.001 141.499,208.999 266.001,281.001 "
   id="polygon23" />
			<text
   transform="translate(98.4995,106.4897)"
   id="text25"><tspan
     x="0"
     y="0"
     style="font-size:100px;font-family:ArialMT"
     id="tspan27">OH</tspan></text>

			<polygon
   points="133.501,122.998 141.499,122.998 141.499,208.999 137.5,211.001 133.501,208.999 133.501,122.998 "
   id="polygon29" />
			<polygon
   points="1136.001,430.498 1128.003,425.996 1128.003,286.499 1136.001,281.997 1136.001,430.498 "
   id="polygon31" />
			<rect
   width="8.0030003"
   height="114.497"
   x="1102.5"
   y="298.99899"
   id="rect33" /> 
			<polygon
   points="1007.5,505 1007.5,495.498 1128.003,425.996 1136.001,430.498 1007.5,505 "
   id="polygon35" />
			<polygon
   points="878.999,430.498 887.002,425.996 1007.5,495.498 1007.5,505 878.999,430.498 "
   id="polygon37" />
			<polygon
   points="906.499,416.494 910.503,410 1009.502,467.002 1005.503,473.994 906.499,416.494 "
   id="polygon39" />
			<polygon
   points="878.999,281.997 887.002,286.499 887.002,425.996 878.999,430.498 878.999,281.997 "
   id="polygon41" />
			<polygon
   points="1003.501,210 1007.5,212.5 1007.5,216.997 887.002,286.499 878.999,281.997 1003.501,210 "
   id="polygon43" />
			<polygon
   points="1005.503,238.501 1009.502,245.498 910.503,302.5 906.499,296.001 1005.503,238.501 "
   id="polygon45" />
			<polygon
   points="1136.001,281.997 1128.003,286.499 1007.5,216.997 1007.5,212.5 1011.499,210 1136.001,281.997 "
   id="polygon47" />
			<text
   transform="translate(968.4995,108.0015)"
   id="text49"><tspan
     x="0"
     y="0"
     style="font-size:100px;font-family:ArialMT"
     id="tspan51">O</tspan></text>

			<polygon
   points="1003.501,123.999 1011.499,123.999 1011.499,210 1007.5,212.5 1003.501,210 1003.501,123.999 "
   id="polygon53" />
			<path
   d="M 1081.665,36.997 L 1048.335,36.997 M 1347.515,355.498 L 1421.499,355.498"
   style="fill:none;stroke:black;stroke-width:6.4000001"
   id="path55" />
			<path
   d="M 1277.5,355.498 L 1356.44,374.639 C 1350.781,369.893 1347.514,362.881 1347.514,355.498 C 1347.514,348.115 1350.781,341.103 1356.44,336.357 L 1277.5,355.498 z "
   id="path57" />
			<line
   style="fill:none;stroke:black;stroke-width:6.4000001"
   x1="1495.483"
   y1="355.49799"
   x2="1421.499"
   y2="355.49799"
   id="line59" />
			<path
   d="M 1565.503,355.498 L 1486.563,336.357 C 1492.217,341.103 1495.484,348.115 1495.484,355.498 C 1495.484,362.881 1492.217,369.893 1486.563,374.639 L 1565.503,355.498 z "
   id="path61" />
			<polygon
   points="1953.496,430.498 1945.508,425.996 1945.508,286.499 1953.496,281.997 1953.496,430.498 "
   id="polygon63" />
			<rect
   width="8.0080004"
   height="114.497"
   x="1920"
   y="298.99899"
   id="rect65" /> 
			<polygon
   points="1825,505 1825,495.498 1945.508,425.996 1953.496,430.498 1825,505 "
   id="polygon67" />
			<polygon
   points="1696.499,430.498 1704.502,425.996 1825,495.498 1825,505 1696.499,430.498 "
   id="polygon69" />
			<polygon
   points="1723.999,416.494 1728.003,410 1827.002,467.002 1823.003,473.994 1723.999,416.494 "
   id="polygon71" />
			<polygon
   points="1696.499,281.997 1704.502,286.499 1704.502,425.996 1696.499,430.498 1696.499,281.997 "
   id="polygon73" />
			<polygon
   points="1825,207.5 1825,216.997 1704.502,286.499 1696.499,281.997 1825,207.5 "
   id="polygon75" />
			<polygon
   points="1953.496,281.997 1945.508,286.499 1825,216.997 1825,207.5 1953.496,281.997 "
   id="polygon77" />
			<text
   transform="translate(1786,108.0015)"
   id="text79"><tspan
     x="0"
     y="0"
     style="font-size:100px;font-family:ArialMT"
     id="tspan81">O</tspan></text>

			<rect
   width="7.9980001"
   height="95.498001"
   x="1808.0031"
   y="123.999"
   id="rect83" /> 
			<rect
   width="8.0030003"
   height="95.498001"
   x="1833.999"
   y="123.999"
   id="rect85" /> 
			<line
   style="fill:none;stroke:black;stroke-width:6.4000001"
   x1="1666.665"
   y1="261.99701"
   x2="1633.335"
   y2="261.99701"
   id="line87" />
			<polygon
   points="3346.992,425.996 3339.004,430.498 3339.004,281.997 3346.992,286.499 3346.992,425.996 "
   id="polygon89" />
			<rect
   width="7.5"
   height="114.497"
   x="3365"
   y="298.99899"
   id="rect91" /> 
			<polygon
   points="3467.5,495.498 3467.5,505 3339.004,430.498 3346.992,425.996 3467.5,495.498 "
   id="polygon93" />
			<polygon
   points="3588.496,425.996 3595.996,430.498 3467.5,505 3467.5,495.498 3588.496,425.996 "
   id="polygon95" />
			<polygon
   points="3564.492,410 3568.496,416.494 3469.492,473.994 3465.508,467.002 3564.492,410 "
   id="polygon97" />
			<polygon
   points="3588.496,286.499 3595.996,281.997 3595.996,430.498 3588.496,425.996 3588.496,286.499 "
   id="polygon99" />
			<polygon
   points="3467.5,216.997 3467.5,207.5 3595.996,281.997 3588.496,286.499 3467.5,216.997 "
   id="polygon101" />
			<polygon
   points="3346.992,286.499 3339.004,281.997 3467.5,207.5 3467.5,216.997 3346.992,286.499 "
   id="polygon103" />
			<text
   transform="translate(3428.499,108.0015)"
   id="text105"><tspan
     x="0"
     y="0"
     style="font-size:100px;font-family:ArialMT"
     id="tspan107">O</tspan></text>

			<rect
   width="7.9879999"
   height="95.498001"
   x="3450.5081"
   y="123.999"
   id="rect109" /> 
			<rect
   width="7.9879999"
   height="95.498001"
   x="3476.5039"
   y="123.999"
   id="rect111" /> 
			<path
   d="M 3659.16,261.997 L 3625.84,261.997 M 2165.02,356.494 L 2239.004,356.494"
   style="fill:none;stroke:black;stroke-width:6.4000001"
   id="path113" />
			<path
   d="M 2095,356.494 L 2173.945,375.635 C 2168.281,370.889 2165.019,363.887 2165.019,356.494 C 2165.019,349.111 2168.281,342.109 2173.945,337.363 L 2095,356.494 z "
   id="path115" />
			<line
   style="fill:none;stroke:black;stroke-width:6.4000001"
   x1="2312.988"
   y1="356.49399"
   x2="2239.0039"
   y2="356.49399"
   id="line117" />
			<path
   d="M 2383.008,356.494 L 2304.063,337.363 C 2309.727,342.109 2312.989,349.111 2312.989,356.494 C 2312.989,363.887 2309.727,370.889 2304.063,375.635 L 2383.008,356.494 z "
   id="path119" />
			<polygon
   points="2778.496,430.498 2770.508,425.996 2770.508,286.499 2778.496,281.997 2778.496,430.498 "
   id="polygon121" />
			<rect
   width="8.0080004"
   height="114.497"
   x="2745"
   y="298.99899"
   id="rect123" /> 
			<polygon
   points="2650,505 2650,495.498 2770.508,425.996 2778.496,430.498 2650,505 "
   id="polygon125" />
			<polygon
   points="2521.504,430.498 2529.492,425.996 2650,495.498 2650,505 2521.504,430.498 "
   id="polygon127" />
			<polygon
   points="2521.504,281.997 2529.492,286.499 2529.492,425.996 2521.504,430.498 2521.504,281.997 "
   id="polygon129" />
			<rect
   width="8.0080004"
   height="114.497"
   x="2546.9919"
   y="298.99899"
   id="rect131" /> 
			<polygon
   points="2650,207.5 2650,216.997 2529.492,286.499 2521.504,281.997 2650,207.5 "
   id="polygon133" />
			<polygon
   points="2778.496,281.997 2770.508,286.499 2650,216.997 2650,207.5 2778.496,281.997 "
   id="polygon135" />
			<text
   transform="translate(2610.999,108.0015)"
   id="text137"><tspan
     x="0"
     y="0"
     style="font-size:100px;font-family:ArialMT"
     id="tspan139">O</tspan></text>

			<rect
   width="7.9879999"
   height="95.498001"
   x="2633.0081"
   y="123.999"
   id="rect141" /> 
			<rect
   width="7.9879999"
   height="95.498001"
   x="2659.0039"
   y="123.999"
   id="rect143" /> 
			<path
   d="M 2666.66,539.502 L 2633.34,539.502 M 2982.52,356.494 L 3056.504,356.494"
   style="fill:none;stroke:black;stroke-width:6.4000001"
   id="path145" />
			<path
   d="M 2912.5,356.494 L 2991.445,375.635 C 2985.781,370.889 2982.519,363.887 2982.519,356.494 C 2982.519,349.111 2985.781,342.109 2991.445,337.363 L 2912.5,356.494 z "
   id="path147" />
			<line
   style="fill:none;stroke:black;stroke-width:6.4000001"
   x1="3130.488"
   y1="356.49399"
   x2="3056.5039"
   y2="356.49399"
   id="line149" />
			<path
   d="M 3200.508,356.494 L 3121.563,337.363 C 3127.227,342.109 3130.489,349.111 3130.489,356.494 C 3130.489,363.887 3127.227,370.889 3121.563,375.635 L 3200.508,356.494 z "
   id="path151" />
			<text
   transform="translate(448.2515,277.4995)"
   id="text153"><tspan
     x="0"
     y="0"
     style="font-size:100px;font-family:ArialMT"
     id="tspan155">− H</tspan></text>

			<path
   d="M 649.165,211.997 L 615.835,211.997 M 632.5,228.667 L 632.5,195.332"
   style="fill:none;stroke:black;stroke-width:6.4000001"
   id="path157" />
			<text
   transform="translate(448.2485,525)"
   id="text159"><tspan
     x="0"
     y="0"
     style="font-size:100px;font-family:ArialMT"
     id="tspan161">+ </tspan></text>

			<text
   transform="translate(534.4595,525)"
   id="text163"><tspan
     x="0"
     y="0"
     style="font-size:100px;font-family:ArialMT"
     id="tspan165">H</tspan></text>

			<path
   d="M 649.165,458.496 L 615.835,458.496 M 632.5,475.166 L 632.5,441.836"
   style="fill:none;stroke:black;stroke-width:6.4000001"
   id="path167" />
			<path
   d="M 1076.499,52.5 C 1104.102,68.506 1113.511,103.896 1097.5,131.499 C 1091.279,142.222 1081.777,150.664 1070.396,155.571"
   style="fill:none;stroke:#00a0c6;stroke-width:6.4000001"
   id="path169" />
			<path
   d="M 1018.501,152.5 L 1077.871,174.443 C 1072.71,169.57 1069.975,162.661 1070.395,155.571 C 1070.815,148.486 1074.345,141.948 1080.043,137.715 L 1018.501,152.5 z "
   style="fill:#00a0c6"
   id="path171" />
			<path
   d="M 875.161,273.755 L 866.65,211.035 C 864.77,217.881 859.956,223.54 853.501,226.499 C 847.046,229.458 839.614,229.409 833.203,226.367 L 875.161,273.755 z "
   style="fill:#00a0c6"
   id="path173" />
			<path
   d="M 853.501,226.499 C 815,142.5 867.5,142.5 938.501,241.499"
   style="fill:none;stroke:#00a0c6;stroke-width:8"
   id="path175" />
			<path
   d="M 1641.001,277.5 C 1635.767,297.305 1639.165,318.398 1650.361,335.557"
   style="fill:none;stroke:#00a0c6;stroke-width:6.4000001"
   id="path177" />
			<path
   d="M 1692.5,365.996 L 1632.632,345.449 C 1639.712,344.931 1646.206,341.318 1650.361,335.556 C 1654.516,329.804 1655.913,322.509 1654.179,315.624 L 1692.5,365.996 z "
   style="fill:#00a0c6"
   id="path179" />
			<path
   d="M 1819.692,504.414 L 1768.637,541.826 C 1775.546,540.215 1782.822,541.738 1788.5,545.996 C 1794.178,550.254 1797.685,556.816 1798.07,563.896 L 1819.692,504.414 z "
   style="fill:#00a0c6"
   id="path181" />
			<g
   id="g183">
				<defs
   id="defs185">
					<rect
   width="3680"
   height="610"
   x="0"
   y="0"
   id="XMLID_1_" /> 
				</defs>
				<clipPath
   id="XMLID_5_">
					<use
   id="use189"
   x="0"
   y="0"
   width="3753.3611"
   height="674.41699"
   xlink:href="#XMLID_1_" />
				</clipPath>
				<path
   d="M 1788.501,545.996 C 1733.003,620 1708.003,573.994 1761.001,464.502"
   style="fill:none;stroke:#00a0c6;stroke-width:8"
   id="path191" />
			</g>
			<path
   d="M 2713.145,466.113 L 2704.122,528.759 C 2707.794,522.695 2713.985,518.573 2720.997,517.499 C 2728.009,516.425 2735.157,518.505 2740.489,523.192 L 2713.145,466.113 z "
   style="fill:#00a0c6"
   id="path193" />
			<g
   id="g195">
				<defs
   id="defs197">
					<rect
   width="3680"
   height="610"
   x="0"
   y="0"
   id="XMLID_3_" /> 
				</defs>
				<clipPath
   id="XMLID_6_">
					<use
   id="use201"
   x="0"
   y="0"
   width="3753.3611"
   height="674.41699"
   xlink:href="#XMLID_3_" />
				</clipPath>
				<path
   d="M 2720.996,517.5 C 2728.496,566.494 2676.992,667.002 2647.5,548.496"
   style="fill:none;stroke:#00a0c6;stroke-width:8"
   id="path203" />
			</g>
			<path
   d="M 2793.164,270.444 L 2854.941,284.194 C 2849.179,280.053 2845.546,273.579 2845,266.499 C 2844.454,259.419 2847.09,252.466 2852.168,247.505 L 2793.164,270.444 z "
   style="fill:#00a0c6"
   id="path205" />
			<path
   d="M 2845,266.499 C 2936.992,259.497 2899.004,324.502 2780.996,356.494"
   style="fill:none;stroke:#00a0c6;stroke-width:8"
   id="path207" />
			<line
   style="fill:none;stroke:black;stroke-width:6.4000001"
   x1="480.51801"
   y1="372.99799"
   x2="698.50098"
   y2="372.99799"
   id="line209" />
			<path
   d="M 410.503,368.994 L 489.439,392.139 C 483.785,387.393 480.518,380.381 480.518,372.998 L 480.518,368.994 L 410.503,368.994 L 410.503,368.994 z "
   id="path211" />
			<line
   style="fill:none;stroke:black;stroke-width:6.4000001"
   x1="628.48602"
   y1="340.996"
   x2="410.50299"
   y2="340.996"
   id="line213" />
			<path
   d="M 698.501,345 L 619.561,321.855 C 625.22,326.611 628.487,333.613 628.487,340.996 L 628.487,345 L 698.501,345 z "
   id="path215" />
		</g>
	</svg>